PathFileType	4	(X/Y/Z)	C:\Users\Biomechanik\SynologyDrive\AlexP\Athlete_03\Athlete_3_25_03_31\Static_01\marker_experimental.trc
DataRate	CameraRate	NumFrames	NumMarkers	Units	OrigDataRate	OrigDataStartFrame	OrigNumFrames
200.000000	200.000000	4	74	mm	200.000000	139	372
Frame#	Time	BL			BR			GLAB			RFHD			LFHD			C7			T6			SPINMOL			SPINM2			SPINM3			T12			BELTOL			BELT2			BELT3			SACROL			SACR2			SACR3			LASI			RASI			LPSI			RPSI			LTHOL			LTH2			LTH3			LKNEL			LKNEM			LFIB			LSHAOL			LSHA2			LSHA3			LMALL			LMALM			LHEE			LTOE			LM5			RTHOL			RTH2			RTH3			RKNEL			RKNEM			RFIB			RSHAOL			RSHA2			RSHA3			RMALL			RMALM			RHEE			RTOE			RM5			STRN			XIPH			LACR			LUAOL			LUA2			LUA3			LCUBL			LCUBM			LLAOL			LLA2			LLA3			LWRR			LWRU			RACR			RUAOL			RUA2			RUA3			RCUBL			RCUBM			RLAOL			RLA2			RLA3			RWRR			RWRU			*73			
		X1	Y1	Z1	X2	Y2	Z2	X3	Y3	Z3	X4	Y4	Z4	X5	Y5	Z5	X6	Y6	Z6	X7	Y7	Z7	X8	Y8	Z8	X9	Y9	Z9	X10	Y10	Z10	X11	Y11	Z11	X12	Y12	Z12	X13	Y13	Z13	X14	Y14	Z14	X15	Y15	Z15	X16	Y16	Z16	X17	Y17	Z17	X18	Y18	Z18	X19	Y19	Z19	X20	Y20	Z20	X21	Y21	Z21	X22	Y22	Z22	X23	Y23	Z23	X24	Y24	Z24	X25	Y25	Z25	X26	Y26	Z26	X27	Y27	Z27	X28	Y28	Z28	X29	Y29	Z29	X30	Y30	Z30	X31	Y31	Z31	X32	Y32	Z32	X33	Y33	Z33	X34	Y34	Z34	X35	Y35	Z35	X36	Y36	Z36	X37	Y37	Z37	X38	Y38	Z38	X39	Y39	Z39	X40	Y40	Z40	X41	Y41	Z41	X42	Y42	Z42	X43	Y43	Z43	X44	Y44	Z44	X45	Y45	Z45	X46	Y46	Z46	X47	Y47	Z47	X48	Y48	Z48	X49	Y49	Z49	X50	Y50	Z50	X51	Y51	Z51	X52	Y52	Z52	X53	Y53	Z53	X54	Y54	Z54	X55	Y55	Z55	X56	Y56	Z56	X57	Y57	Z57	X58	Y58	Z58	X59	Y59	Z59	X60	Y60	Z60	X61	Y61	Z61	X62	Y62	Z62	X63	Y63	Z63	X64	Y64	Z64	X65	Y65	Z65	X66	Y66	Z66	X67	Y67	Z67	X68	Y68	Z68	X69	Y69	Z69	X70	Y70	Z70	X71	Y71	Z71	X72	Y72	Z72	X73	Y73	Z73	X74	Y74	Z74	

140	0.6950000000000001	960.7467041015625	36.2266311645509	-1933.524291992188	1063.156127929688	32.92826080322265	86.65276336669922	367.0816955566406	1600.899169921875	-1186.632446289062	316.5819091796875	1628.008178710938	-1124.393188476562	327.1555480957031	1628.580078125	-1259.9365234375	140.1694030761719	1439.2109375	-1206.375	nan	nan	nan	97.43405151367188	1230.180541992188	-1238.937377929688	91.51515960693359	1220.940551757812	-1189.531005859375	104.530647277832	1165.72705078125	-1224.222534179688	120.7227630615234	1102.19921875	-1221.237670898438	92.60547637939453	1081.01220703125	-1235.702392578125	92.20419311523438	1077.866821289062	-1185.485229492188	85.56349182128906	1018.401184082031	-1215.5732421875	101.4188232421875	958.7973022460939	-1240.1474609375	102.0280532836914	956.7905273437501	-1188.740112304688	83.37894439697266	899.4239501953126	-1216.185791015625	332.3198852539062	935.0625000000001	-1331.629272460938	323.5751953125	926.3358764648439	-1084.379272460938	114.1520919799805	976.1181640625001	-1258.963500976562	114.5469207763672	967.3480224609376	-1174.394653320312	191.7425842285156	683.2154541015626	-1401.23876953125	142.3639984130859	629.8892211914064	-1368.47998046875	188.5022430419922	623.4141235351564	-1387.3916015625	236.7981872558594	487.5213012695313	-1383.768432617188	254.7566986083984	462.0920715332032	-1264.357177734375	194.1319580078125	425.5455627441407	-1388.60400390625	160.0845031738281	328.5489501953126	-1404.096801757812	110.7841567993164	267.1069641113282	-1391.001831054688	159.6832733154297	266.7364501953126	-1402.31982421875	142.7303619384766	81.31924438476571	-1381.602172851562	183.5518798828125	89.6983184814454	-1295.786010742188	94.93968963623047	67.37528228759774	-1318.39111328125	309.8751831054688	47.75222778320321	-1348.664306640625	253.0493774414062	31.15239524841317	-1443.605102539062	158.9742431640625	696.5127563476564	-1025.691772460938	209.5131988525391	637.9692382812501	-1005.805114746094	166.2776031494141	635.2579956054689	-1030.734985351562	200.1139068603516	496.3584594726563	-1026.880859375	238.2401733398438	464.2835998535157	-1148.377563476562	153.2813873291016	432.6218872070313	-1029.795166015625	118.969482421875	346.8337097167969	-1019.654235839844	148.65185546875	275.6354064941407	-1004.161560058594	107.3468856811523	286.4072570800782	-1029.718872070312	124.8761596679688	85.05272674560553	-1041.832153320312	188.9886627197266	95.52411651611335	-1114.60498046875	90.62760162353516	63.48073577880866	-1115.057006835938	292.678955078125	47.6170501708985	-1043.758911132812	216.4344635009766	39.44388961791998	-964.2413330078125	322.1456604003906	1365.713500976562	-1201.772583007812	352.9033813476562	1220.085693359375	-1203.949462890625	200.7301635742188	1435.8955078125	-1352.360717773438	167.5334167480469	1411.526733398438	-1491.00439453125	156.4408264160156	1387.381591796875	-1551.614379882812	199.9516754150391	1414.842651367188	-1548.327026367188	181.7991180419922	1402.929321289062	-1655.868530273438	254.4404602050781	1312.432006835938	-1654.456909179688	179.9374847412109	1377.875244140625	-1746.7490234375	173.0476989746094	1318.825439453125	-1799.897338867188	185.2550811767578	1367.30810546875	-1807.704467773438	198.7174530029297	1358.706420898438	-1912.003173828125	277.7723693847656	1355.294921875	-1904.277465820312	200.7799987792969	1429.548217773438	-1061.7578125	157.6639404296875	1411.51171875	-939.5044555664061	175.2796630859375	1408.6630859375	-875.8939208984374	128.6089019775391	1388.820678710938	-885.7470092773436	151.2852478027344	1390.83642578125	-771.1094360351561	207.4354705810547	1295.321655273438	-771.5712280273436	140.0740203857422	1370.718383789062	-672.1292114257811	156.9655151367188	1412.555541992188	-606.0559692382811	139.6490325927734	1365.047241210938	-609.8479614257811	152.0195007324219	1376.18603515625	-517.5560913085936	229.9258117675781	1351.204223632812	-505.7097167968749	99.97792053222656	1266.830932617188	-1216.650146484375	
141	0.7000000000000001	960.7476806640625	36.23365020751965	-1933.51123046875	1063.151611328125	32.92781829833984	86.64492797851562	367.1334228515625	1600.949340820312	-1186.624389648438	316.6576232910156	1627.976928710938	-1124.322631835938	327.2590637207031	1628.565673828125	-1259.879760742188	140.2109985351562	1439.20751953125	-1206.354125976562	nan	nan	nan	97.49217987060547	1230.20556640625	-1238.920043945312	91.59818267822266	1220.938598632812	-1189.51806640625	104.6158142089844	1165.709106445312	-1224.221435546875	120.809326171875	1102.198852539062	-1221.229614257812	92.85407257080078	1081.040649414062	-1235.640380859375	92.29066467285156	1077.884765625	-1185.473876953125	85.61180114746094	1018.416870117188	-1215.605346679688	101.4996871948242	958.8103637695314	-1240.135620117188	102.0836410522461	956.7930908203126	-1188.760620117188	83.43361663818359	899.4445190429689	-1216.168579101562	332.4021301269531	935.0463867187501	-1331.597778320312	323.6449279785156	926.3101196289064	-1084.396606445312	114.2461471557617	976.1378173828126	-1258.97021484375	114.6207427978516	967.3653564453126	-1174.3857421875	191.7640380859375	683.2249145507814	-1401.253784179688	142.3715209960938	629.9201049804689	-1368.494262695312	188.5324859619141	623.4245605468751	-1387.385620117188	236.7730255126953	487.5434265136719	-1383.744384765625	254.7402496337891	462.0743408203126	-1264.360229492188	194.1170501708984	425.5459289550782	-1388.598022460938	160.0608062744141	328.558563232422	-1404.088623046875	110.7776870727539	267.1024169921876	-1390.992065429688	159.6705780029297	266.7522583007814	-1402.321899414062	142.7297210693359	81.32361602783212	-1381.603759765625	183.5654907226562	89.70394134521493	-1295.773681640625	94.94485473632812	67.38392639160165	-1318.389770507812	309.8759460449219	47.76878356933602	-1348.656982421875	253.0536193847656	31.1516761779786	-1443.628540039062	159.0388336181641	696.5250244140626	-1025.672729492188	209.5410003662109	637.9547119140626	-1005.797424316406	166.3129577636719	635.2578125000001	-1030.740844726562	200.1423187255859	496.3662414550782	-1026.877563476562	238.2602691650391	464.2400817871094	-1148.370727539062	153.3048706054688	432.6273498535157	-1029.815185546875	118.9783401489258	346.8498840332032	-1019.659973144531	148.6764068603516	275.6377868652344	-1004.159545898438	107.3535995483398	286.4071960449219	-1029.716552734375	124.8808441162109	85.05461883544928	-1041.828002929688	188.9906311035156	95.54402160644538	-1114.639770507812	90.65059661865234	63.46636199951179	-1115.05126953125	292.6882934570312	47.6214675903321	-1043.749145507812	216.4443511962891	39.4667701721192	-964.2133178710938	322.2195739746094	1365.69775390625	-1201.75341796875	352.9770812988281	1220.08642578125	-1203.923706054688	200.7890472412109	1435.889892578125	-1352.325439453125	167.579833984375	1411.529052734375	-1490.978393554688	156.439208984375	1387.143432617188	-1551.552490234375	199.9821624755859	1414.836181640625	-1548.313720703125	181.8730773925781	1402.94384765625	-1655.836669921875	254.4769439697266	1312.454223632812	-1654.454956054688	179.9705352783203	1377.924072265625	-1746.725952148438	173.0781402587891	1318.865600585938	-1799.853149414062	185.2751617431641	1367.322998046875	-1807.6767578125	198.7590179443359	1358.742065429688	-1911.9619140625	277.781005859375	1355.298583984375	-1904.273681640625	200.8443756103516	1429.548583984375	-1061.754150390625	157.68994140625	1411.524047851562	-939.5152587890624	175.3345336914062	1408.695556640625	-875.8906860351561	128.6490020751953	1388.836059570312	-885.7395019531249	151.3081359863281	1390.836669921875	-771.1138916015624	207.4750366210938	1295.32373046875	-771.5617675781249	140.1029663085938	1370.719848632812	-672.1319580078124	156.9779205322266	1412.57080078125	-606.0728759765624	139.671875	1365.078491210938	-609.8245849609374	152.0412139892578	1376.21875	-517.5389404296874	229.9325103759766	1351.23828125	-505.6922912597656	99.69281005859375	1266.978271484375	-1216.708374023438	
142	0.705	960.7463989257812	36.22978210449231	-1933.51513671875	1063.15234375	32.93267440795898	86.64724731445312	367.30908203125	1600.777221679688	-1186.443603515625	316.7440185546875	1627.955200195312	-1124.298583984375	327.3563842773438	1628.540161132812	-1259.821655273438	140.2738494873047	1439.20263671875	-1206.332885742188	nan	nan	nan	97.57061004638672	1230.1962890625	-1238.908813476562	91.67775726318359	1220.948120117188	-1189.504760742188	104.6920776367188	1165.710205078125	-1224.210327148438	120.8997116088867	1102.200927734375	-1221.235595703125	92.81647491455078	1081.0419921875	-1235.65234375	92.35835266113281	1077.878295898438	-1185.47216796875	85.74697113037109	1018.430419921875	-1215.562133789062	101.577880859375	958.8364868164064	-1240.113403320312	102.139518737793	956.8169555664064	-1188.7373046875	83.491943359375	899.4775390625001	-1216.153442382812	332.4781494140625	935.0388183593751	-1331.588134765625	323.7144165039062	926.2792358398439	-1084.419799804688	114.3388137817383	976.1580200195314	-1258.954956054688	114.6991500854492	967.3827514648439	-1174.3857421875	191.8214263916016	683.2893066406251	-1401.22998046875	142.3964538574219	629.9420166015626	-1368.475341796875	188.5527496337891	623.4225463867189	-1387.37060546875	236.7717437744141	487.5453796386719	-1383.739135742188	254.7284393310547	462.0789794921876	-1264.363525390625	194.1053161621094	425.5599975585938	-1388.562866210938	160.0413970947266	328.5776367187501	-1404.083740234375	110.7656402587891	267.1102905273438	-1390.989135742188	159.6605224609375	266.7540588378907	-1402.322631835938	142.7241516113281	81.33586120605477	-1381.596923828125	183.567626953125	89.69390869140634	-1295.7626953125	94.9349365234375	67.39450836181649	-1318.39697265625	309.8694763183594	47.76054382324227	-1348.650146484375	253.0509948730469	31.1760025024415	-1443.615966796875	159.0681915283203	696.5369873046876	-1025.677856445312	209.5699157714844	637.9628906250001	-1005.782104492188	166.3492126464844	635.2581176757814	-1030.73095703125	200.1679382324219	496.3631591796876	-1026.885375976562	238.272216796875	464.2599792480469	-1148.37890625	153.3205718994141	432.6243286132813	-1029.824829101562	118.9875183105469	346.8625793457032	-1019.65966796875	148.6716766357422	275.6636352539063	-1004.179382324219	107.3573608398438	286.4159240722657	-1029.718017578125	124.8797378540039	85.05055236816412	-1041.834350585938	188.9905853271484	95.54939270019538	-1114.61279296875	90.54483795166016	63.58011627197273	-1115.064819335938	292.6846008300781	47.61914443969733	-1043.76123046875	216.4401702880859	39.48542022705084	-964.2073364257812	322.2714538574219	1365.711547851562	-1201.732666015625	353.048583984375	1220.103881835938	-1203.904907226562	200.8362579345703	1435.892700195312	-1352.294921875	167.6176910400391	1411.533813476562	-1490.952514648438	156.4613952636719	1387.1416015625	-1551.5478515625	200.0152587890625	1414.849243164062	-1548.29345703125	181.8767395019531	1402.963012695312	-1655.8203125	254.5131530761719	1312.472412109375	-1654.433959960938	179.9541320800781	1377.942504882812	-1746.709716796875	173.1087188720703	1318.882080078125	-1799.836669921875	185.2942657470703	1367.348388671875	-1807.6484375	198.784912109375	1358.775634765625	-1911.927978515625	277.7767333984375	1355.33251953125	-1904.255737304688	200.8900451660156	1429.542114257812	-1061.746704101562	157.7262420654297	1411.515258789062	-939.5048217773436	175.3442535400391	1408.688110351562	-875.8989257812499	128.6546936035156	1388.865966796875	-885.7295532226561	151.3424530029297	1390.849609375	-771.1018676757811	207.4965515136719	1295.2998046875	-771.5750732421874	140.1227569580078	1370.733642578125	-672.1325683593749	156.9920043945312	1412.598022460938	-606.0437622070311	139.6725158691406	1365.107421875	-609.8200683593749	152.0272369384766	1376.251342773438	-517.5343017578124	229.9515533447266	1351.265869140625	-505.6691894531249	99.75569152832031	1266.967407226562	-1216.705688476562	
143	0.71	960.7582397460938	36.21142196655286	-1933.513916015625	1063.166625976562	32.94672012329101	86.65093231201172	367.1515502929688	1600.866333007812	-1186.6865234375	316.8091735839844	1627.910278320312	-1124.267211914062	327.5507202148438	1628.662353515625	-1259.948974609375	140.3231506347656	1439.19677734375	-1206.308959960938	nan	nan	nan	97.64206695556641	1230.188354492188	-1238.898559570312	91.75320434570312	1220.94970703125	-1189.484375	104.7756500244141	1165.691650390625	-1224.21240234375	120.9845733642578	1102.193237304688	-1221.227416992188	93.10398101806641	1081.089477539062	-1235.5771484375	92.43030548095703	1077.882934570312	-1185.477294921875	85.88680267333984	1018.397216796875	-1215.481689453125	101.662727355957	958.8546142578126	-1240.11669921875	102.2644805908203	956.8327636718751	-1188.736328125	83.58383941650391	899.5032958984376	-1216.131958007812	332.5523071289062	935.0240478515626	-1331.579711914062	323.7958374023438	926.2567138671876	-1084.43603515625	114.4312286376953	976.1458740234376	-1258.931274414062	114.7714691162109	967.3867797851564	-1174.367065429688	191.8258972167969	683.1994018554689	-1401.227294921875	142.410888671875	629.9689941406251	-1368.476196289062	188.5812377929688	623.4178466796876	-1387.353149414062	236.7548217773438	487.5496215820313	-1383.7294921875	254.7157287597656	462.0899658203126	-1264.363159179688	194.0817718505859	425.5693054199219	-1388.556030273438	160.0371398925781	328.5766906738282	-1404.068725585938	110.7532730102539	267.1129760742188	-1390.982543945312	159.6470794677734	266.772430419922	-1402.322021484375	142.7372131347656	81.3177032470704	-1381.593994140625	183.5757904052734	89.70107269287118	-1295.772338867188	94.94829559326172	67.40124511718759	-1318.391845703125	309.8657836914062	47.74156188964852	-1348.648803710938	253.0511779785156	31.15869331359872	-1443.609130859375	159.1083221435547	696.5296020507814	-1025.66796875	209.5962982177734	637.9595947265626	-1005.775756835938	166.3798217773438	635.2661132812501	-1030.719970703125	200.1832122802734	496.3597106933594	-1026.883666992188	238.28564453125	464.2481384277344	-1148.389892578125	153.3431243896484	432.6365661621094	-1029.819458007812	118.9990921020508	346.8583984375001	-1019.657287597656	148.6883087158203	275.6587219238282	-1004.172790527344	107.370246887207	286.4246520996094	-1029.710205078125	124.8906784057617	85.05728149414068	-1041.835815429688	189.0065002441406	95.51353454589851	-1114.611083984375	90.61624145507812	63.51594161987312	-1115.05859375	292.6852111816406	47.61581420898444	-1043.760375976562	216.4563446044922	39.48484039306646	-964.2002563476562	322.3439636230469	1365.716186523438	-1201.704467773438	353.1233825683594	1220.093627929688	-1203.882080078125	200.8914794921875	1435.9091796875	-1352.273193359375	167.6474151611328	1411.52880859375	-1490.942260742188	156.583740234375	1387.154541015625	-1551.465087890625	200.0080108642578	1414.836791992188	-1548.310668945312	181.9151153564453	1402.9765625	-1655.802734375	254.5711212158203	1312.455322265625	-1654.417236328125	180.0763397216797	1377.969604492188	-1746.636474609375	173.1342926025391	1318.912109375	-1799.801025390625	185.3219451904297	1367.377197265625	-1807.612182617188	198.7892608642578	1358.79833984375	-1911.897216796875	277.7808837890625	1355.354614257813	-1904.248413085938	200.9303741455078	1429.530883789062	-1061.729614257812	157.7559204101562	1411.519165039062	-939.5106811523436	175.3964080810547	1408.672241210938	-875.8777465820311	128.6822509765625	1388.800170898438	-885.6732788085936	151.3811798095703	1390.85986328125	-771.0964965820311	207.4703063964844	1295.324829101562	-771.5908813476561	140.1429138183594	1370.74609375	-672.1283569335936	156.9904632568359	1412.609985351562	-606.0550537109374	139.7000274658203	1365.127807617188	-609.8229370117186	152.2370147705078	1376.150512695312	-517.6919555664061	229.940185546875	1351.33544921875	-505.6589660644531	99.83541107177734	1266.95654296875	-1216.68994140625	
